<mxfile host="65bd71144e">
    <diagram id="oRZaLXy1vsITSXBMTITj" name="Page-1">
        <mxGraphModel dx="1096" dy="471" grid="1" gridSize="10" guides="1" tooltips="1" connect="1" arrows="1" fold="1" page="1" pageScale="1" pageWidth="850" pageHeight="1100" math="0" shadow="0">
            <root>
                <mxCell id="0"/>
                <mxCell id="1" parent="0"/>
                <mxCell id="266" value="&amp;nbsp; &amp;nbsp;&lt;br&gt;&amp;nbsp; &amp;nbsp; &lt;font style=&quot;font-size: 40px;&quot;&gt;items&lt;/font&gt;" style="shape=folder;fontStyle=1;spacingTop=10;tabWidth=40;tabHeight=14;tabPosition=left;html=1;align=left;verticalAlign=top;" vertex="1" parent="1">
                    <mxGeometry x="280" y="80" width="2180" height="2100" as="geometry"/>
                </mxCell>
                <mxCell id="267" value="&lt;p style=&quot;margin:0px;margin-top:4px;text-align:center;&quot;&gt;&lt;b&gt;&lt;i&gt;Loanable {abstract}&lt;/i&gt;&lt;/b&gt;&lt;/p&gt;" style="verticalAlign=top;align=left;overflow=fill;fontSize=12;fontFamily=Helvetica;html=1;" vertex="1" parent="1">
                    <mxGeometry x="1715" y="240" width="500" height="460" as="geometry"/>
                </mxCell>
                <mxCell id="268" value="- name: String" style="text;strokeColor=none;fillColor=none;align=left;verticalAlign=top;spacingLeft=4;spacingRight=4;overflow=hidden;rotatable=0;points=[[0,0.5],[1,0.5]];portConstraint=eastwest;" vertex="1" parent="1">
                    <mxGeometry x="1725" y="282" width="160" height="24" as="geometry"/>
                </mxCell>
                <mxCell id="269" value="- state: LoanState" style="text;strokeColor=none;fillColor=none;align=left;verticalAlign=top;spacingLeft=4;spacingRight=4;overflow=hidden;rotatable=0;points=[[0,0.5],[1,0.5]];portConstraint=eastwest;" vertex="1" parent="1">
                    <mxGeometry x="1725" y="306" width="160" height="24" as="geometry"/>
                </mxCell>
                <mxCell id="270" value="- dueDate: LocalDate" style="text;strokeColor=none;fillColor=none;align=left;verticalAlign=top;spacingLeft=4;spacingRight=4;overflow=hidden;rotatable=0;points=[[0,0.5],[1,0.5]];portConstraint=eastwest;" vertex="1" parent="1">
                    <mxGeometry x="1725" y="332" width="160" height="24" as="geometry"/>
                </mxCell>
                <mxCell id="271" value="- name: ID" style="text;strokeColor=none;fillColor=none;align=left;verticalAlign=top;spacingLeft=4;spacingRight=4;overflow=hidden;rotatable=0;points=[[0,0.5],[1,0.5]];portConstraint=eastwest;" vertex="1" parent="1">
                    <mxGeometry x="1725" y="356" width="160" height="24" as="geometry"/>
                </mxCell>
                <mxCell id="272" value="&lt;&lt;enumeration&gt;&gt;&#10;LoanState" style="swimlane;fontStyle=4;childLayout=stackLayout;horizontal=1;startSize=40;fillColor=none;horizontalStack=0;resizeParent=1;resizeParentMax=0;resizeLast=0;collapsible=1;marginBottom=0;" vertex="1" parent="1">
                    <mxGeometry x="2005" y="296" width="140" height="144" as="geometry"/>
                </mxCell>
                <mxCell id="273" value=" ON_LOAN" style="text;strokeColor=none;fillColor=none;align=left;verticalAlign=top;spacingLeft=4;spacingRight=4;overflow=hidden;rotatable=0;points=[[0,0.5],[1,0.5]];portConstraint=eastwest;" vertex="1" parent="272">
                    <mxGeometry y="40" width="140" height="26" as="geometry"/>
                </mxCell>
                <mxCell id="274" value="IN_ARCHIVE" style="text;strokeColor=none;fillColor=none;align=left;verticalAlign=top;spacingLeft=4;spacingRight=4;overflow=hidden;rotatable=0;points=[[0,0.5],[1,0.5]];portConstraint=eastwest;" vertex="1" parent="272">
                    <mxGeometry y="66" width="140" height="26" as="geometry"/>
                </mxCell>
                <mxCell id="275" value="LOST" style="text;strokeColor=none;fillColor=none;align=left;verticalAlign=top;spacingLeft=4;spacingRight=4;overflow=hidden;rotatable=0;points=[[0,0.5],[1,0.5]];portConstraint=eastwest;" vertex="1" parent="272">
                    <mxGeometry y="92" width="140" height="26" as="geometry"/>
                </mxCell>
                <mxCell id="276" value="RUINED" style="text;strokeColor=none;fillColor=none;align=left;verticalAlign=top;spacingLeft=4;spacingRight=4;overflow=hidden;rotatable=0;points=[[0,0.5],[1,0.5]];portConstraint=eastwest;" vertex="1" parent="272">
                    <mxGeometry y="118" width="140" height="26" as="geometry"/>
                </mxCell>
                <mxCell id="277" value="- borrower: User" style="text;strokeColor=none;fillColor=none;align=left;verticalAlign=top;spacingLeft=4;spacingRight=4;overflow=hidden;rotatable=0;points=[[0,0.5],[1,0.5]];portConstraint=eastwest;" vertex="1" parent="1">
                    <mxGeometry x="1725" y="380" width="160" height="24" as="geometry"/>
                </mxCell>
                <mxCell id="278" value="" style="line;strokeWidth=1;fillColor=none;align=left;verticalAlign=middle;spacingTop=-1;spacingLeft=3;spacingRight=3;rotatable=0;labelPosition=right;points=[];portConstraint=eastwest;strokeColor=inherit;" vertex="1" parent="1">
                    <mxGeometry x="1715" y="440" width="500" height="8" as="geometry"/>
                </mxCell>
                <mxCell id="279" value="+ Loanable(name: String, state: LoanState, borrower: User, dueDate: LocalDate, id: String)     " style="text;strokeColor=none;fillColor=none;align=left;verticalAlign=top;spacingLeft=4;spacingRight=4;overflow=hidden;rotatable=0;points=[[0,0.5],[1,0.5]];portConstraint=eastwest;" vertex="1" parent="1">
                    <mxGeometry x="1715" y="448" width="500" height="24" as="geometry"/>
                </mxCell>
                <mxCell id="280" value="+ Loanable(name: String, id: String)     " style="text;strokeColor=none;fillColor=none;align=left;verticalAlign=top;spacingLeft=4;spacingRight=4;overflow=hidden;rotatable=0;points=[[0,0.5],[1,0.5]];portConstraint=eastwest;" vertex="1" parent="1">
                    <mxGeometry x="1715" y="472" width="500" height="24" as="geometry"/>
                </mxCell>
                <mxCell id="281" value="- createID(): String" style="text;strokeColor=none;fillColor=none;align=left;verticalAlign=top;spacingLeft=4;spacingRight=4;overflow=hidden;rotatable=0;points=[[0,0.5],[1,0.5]];portConstraint=eastwest;" vertex="1" parent="1">
                    <mxGeometry x="1715" y="496" width="500" height="24" as="geometry"/>
                </mxCell>
                <mxCell id="282" value="+ setOnLoanTo(applicant: Admin, borrower: User)" style="text;strokeColor=none;fillColor=none;align=left;verticalAlign=top;spacingLeft=4;spacingRight=4;overflow=hidden;rotatable=0;points=[[0,0.5],[1,0.5]];portConstraint=eastwest;" vertex="1" parent="1">
                    <mxGeometry x="1715" y="520" width="500" height="24" as="geometry"/>
                </mxCell>
                <mxCell id="283" value="+ setOnArchive(applicant: Admin)" style="text;strokeColor=none;fillColor=none;align=left;verticalAlign=top;spacingLeft=4;spacingRight=4;overflow=hidden;rotatable=0;points=[[0,0.5],[1,0.5]];portConstraint=eastwest;" vertex="1" parent="1">
                    <mxGeometry x="1715" y="544" width="500" height="24" as="geometry"/>
                </mxCell>
                <mxCell id="284" value="+ setLost(applicant: Admin)" style="text;strokeColor=none;fillColor=none;align=left;verticalAlign=top;spacingLeft=4;spacingRight=4;overflow=hidden;rotatable=0;points=[[0,0.5],[1,0.5]];portConstraint=eastwest;" vertex="1" parent="1">
                    <mxGeometry x="1715" y="568" width="500" height="24" as="geometry"/>
                </mxCell>
                <mxCell id="285" value="+ setRuined(applicant: Admin)" style="text;strokeColor=none;fillColor=none;align=left;verticalAlign=top;spacingLeft=4;spacingRight=4;overflow=hidden;rotatable=0;points=[[0,0.5],[1,0.5]];portConstraint=eastwest;" vertex="1" parent="1">
                    <mxGeometry x="1715" y="592" width="500" height="24" as="geometry"/>
                </mxCell>
                <mxCell id="286" value="+ setDueDate(applicant: Admin, dueDate: LocalDate)" style="text;strokeColor=none;fillColor=none;align=left;verticalAlign=top;spacingLeft=4;spacingRight=4;overflow=hidden;rotatable=0;points=[[0,0.5],[1,0.5]];portConstraint=eastwest;" vertex="1" parent="1">
                    <mxGeometry x="1715" y="616" width="500" height="24" as="geometry"/>
                </mxCell>
                <mxCell id="287" value="+ setName(applicant: Admin, name: String)" style="text;strokeColor=none;fillColor=none;align=left;verticalAlign=top;spacingLeft=4;spacingRight=4;overflow=hidden;rotatable=0;points=[[0,0.5],[1,0.5]];portConstraint=eastwest;" vertex="1" parent="1">
                    <mxGeometry x="1715" y="640" width="500" height="24" as="geometry"/>
                </mxCell>
                <mxCell id="288" value="+ getters" style="text;strokeColor=none;fillColor=none;align=left;verticalAlign=top;spacingLeft=4;spacingRight=4;overflow=hidden;rotatable=0;points=[[0,0.5],[1,0.5]];portConstraint=eastwest;" vertex="1" parent="1">
                    <mxGeometry x="1715" y="664" width="500" height="24" as="geometry"/>
                </mxCell>
                <mxCell id="289" value="&lt;p style=&quot;margin:0px;margin-top:4px;text-align:center;&quot;&gt;&lt;b&gt;Book&lt;/b&gt;&lt;/p&gt;" style="verticalAlign=top;align=left;overflow=fill;fontSize=12;fontFamily=Helvetica;html=1;" vertex="1" parent="1">
                    <mxGeometry x="1710" y="810" width="510" height="500" as="geometry"/>
                </mxCell>
                <mxCell id="290" value="- name: String" style="text;strokeColor=none;fillColor=none;align=left;verticalAlign=top;spacingLeft=4;spacingRight=4;overflow=hidden;rotatable=0;points=[[0,0.5],[1,0.5]];portConstraint=eastwest;" vertex="1" parent="1">
                    <mxGeometry x="1720" y="852" width="160" height="24" as="geometry"/>
                </mxCell>
                <mxCell id="291" value="- author: String" style="text;strokeColor=none;fillColor=none;align=left;verticalAlign=top;spacingLeft=4;spacingRight=4;overflow=hidden;rotatable=0;points=[[0,0.5],[1,0.5]];portConstraint=eastwest;" vertex="1" parent="1">
                    <mxGeometry x="1720" y="876" width="160" height="24" as="geometry"/>
                </mxCell>
                <mxCell id="292" value="- genre: Genre" style="text;strokeColor=none;fillColor=none;align=left;verticalAlign=top;spacingLeft=4;spacingRight=4;overflow=hidden;rotatable=0;points=[[0,0.5],[1,0.5]];portConstraint=eastwest;" vertex="1" parent="1">
                    <mxGeometry x="1720" y="902" width="160" height="24" as="geometry"/>
                </mxCell>
                <mxCell id="293" value="- releaseYear: Year" style="text;strokeColor=none;fillColor=none;align=left;verticalAlign=top;spacingLeft=4;spacingRight=4;overflow=hidden;rotatable=0;points=[[0,0.5],[1,0.5]];portConstraint=eastwest;" vertex="1" parent="1">
                    <mxGeometry x="1720" y="926" width="160" height="24" as="geometry"/>
                </mxCell>
                <mxCell id="294" value="&lt;&lt;enumeration&gt;&gt;&#10;Genre" style="swimlane;fontStyle=4;childLayout=stackLayout;horizontal=1;startSize=40;fillColor=none;horizontalStack=0;resizeParent=1;resizeParentMax=0;resizeLast=0;collapsible=1;marginBottom=0;" vertex="1" parent="1">
                    <mxGeometry x="2040" y="840" width="140" height="220" as="geometry"/>
                </mxCell>
                <mxCell id="295" value="ACTION&#10;&#9;&#9;FANTASY&#10;&#9;&#9;ADVENTURE&#10;&#9;&#9;ROMANCE&#10;&#9;&#9;COMEDY&#10;&#9;&#9;SCIFI&#10;&#9;&#9;MYSTERY&#10;&#9;&#9;THRILLER&#10;&#9;&#9;HISTORICAL&#10;&#9;&#9;COMIC&#10;&#9;&#9;MANGA&#10;&#9;&#9;CHILDREN" style="text;strokeColor=none;fillColor=none;align=left;verticalAlign=top;spacingLeft=4;spacingRight=4;overflow=hidden;rotatable=0;points=[[0,0.5],[1,0.5]];portConstraint=eastwest;" vertex="1" parent="294">
                    <mxGeometry y="40" width="140" height="180" as="geometry"/>
                </mxCell>
                <mxCell id="296" value="- numPages: int" style="text;strokeColor=none;fillColor=none;align=left;verticalAlign=top;spacingLeft=4;spacingRight=4;overflow=hidden;rotatable=0;points=[[0,0.5],[1,0.5]];portConstraint=eastwest;" vertex="1" parent="1">
                    <mxGeometry x="1720" y="950" width="160" height="24" as="geometry"/>
                </mxCell>
                <mxCell id="297" value="" style="line;strokeWidth=1;fillColor=none;align=left;verticalAlign=middle;spacingTop=-1;spacingLeft=3;spacingRight=3;rotatable=0;labelPosition=right;points=[];portConstraint=eastwest;strokeColor=inherit;" vertex="1" parent="1">
                    <mxGeometry x="1710" y="1060" width="510" height="8" as="geometry"/>
                </mxCell>
                <mxCell id="298" value="+ Book(title: String ,author: String, genre: Genre,releaseYear: Year, numPages: int, id: String)" style="text;strokeColor=none;fillColor=none;align=left;verticalAlign=top;spacingLeft=4;spacingRight=4;overflow=hidden;rotatable=0;points=[[0,0.5],[1,0.5]];portConstraint=eastwest;" vertex="1" parent="1">
                    <mxGeometry x="1710" y="1068" width="510" height="24" as="geometry"/>
                </mxCell>
                <mxCell id="299" value="+ Book(title: String ,author: String, genre: Genre, releaseYear: Year, numPages: int, &#10;             state: LoanState, id: String, borrower: User,dueDate: LocalDate)" style="text;strokeColor=none;fillColor=none;align=left;verticalAlign=top;spacingLeft=4;spacingRight=4;overflow=hidden;rotatable=0;points=[[0,0.5],[1,0.5]];portConstraint=eastwest;" vertex="1" parent="1">
                    <mxGeometry x="1710" y="1092" width="510" height="48" as="geometry"/>
                </mxCell>
                <mxCell id="300" value="+ equals(obj: Object): boolean" style="text;strokeColor=none;fillColor=none;align=left;verticalAlign=top;spacingLeft=4;spacingRight=4;overflow=hidden;rotatable=0;points=[[0,0.5],[1,0.5]];portConstraint=eastwest;" vertex="1" parent="1">
                    <mxGeometry x="1710" y="1130" width="500" height="24" as="geometry"/>
                </mxCell>
                <mxCell id="301" value="+ setTitle(applicant: Admin, title: String)" style="text;strokeColor=none;fillColor=none;align=left;verticalAlign=top;spacingLeft=4;spacingRight=4;overflow=hidden;rotatable=0;points=[[0,0.5],[1,0.5]];portConstraint=eastwest;" vertex="1" parent="1">
                    <mxGeometry x="1710" y="1154" width="500" height="24" as="geometry"/>
                </mxCell>
                <mxCell id="302" value="+ setNumPages(applicant: Admin, numPages: int)" style="text;strokeColor=none;fillColor=none;align=left;verticalAlign=top;spacingLeft=4;spacingRight=4;overflow=hidden;rotatable=0;points=[[0,0.5],[1,0.5]];portConstraint=eastwest;" vertex="1" parent="1">
                    <mxGeometry x="1710" y="1250" width="500" height="24" as="geometry"/>
                </mxCell>
                <mxCell id="303" value="+ getters" style="text;strokeColor=none;fillColor=none;align=left;verticalAlign=top;spacingLeft=4;spacingRight=4;overflow=hidden;rotatable=0;points=[[0,0.5],[1,0.5]];portConstraint=eastwest;" vertex="1" parent="1">
                    <mxGeometry x="1710" y="1274" width="500" height="24" as="geometry"/>
                </mxCell>
                <mxCell id="304" value="+ setAuthor(applicant: Admin, author: String)" style="text;strokeColor=none;fillColor=none;align=left;verticalAlign=top;spacingLeft=4;spacingRight=4;overflow=hidden;rotatable=0;points=[[0,0.5],[1,0.5]];portConstraint=eastwest;" vertex="1" parent="1">
                    <mxGeometry x="1710" y="1178" width="500" height="24" as="geometry"/>
                </mxCell>
                <mxCell id="305" value="+ setGenre(applicant: Admin, genre: Genre)" style="text;strokeColor=none;fillColor=none;align=left;verticalAlign=top;spacingLeft=4;spacingRight=4;overflow=hidden;rotatable=0;points=[[0,0.5],[1,0.5]];portConstraint=eastwest;" vertex="1" parent="1">
                    <mxGeometry x="1710" y="1202" width="500" height="24" as="geometry"/>
                </mxCell>
                <mxCell id="306" value="+ setReleaseYear(applicant: Admin, releaseYear: Year)" style="text;strokeColor=none;fillColor=none;align=left;verticalAlign=top;spacingLeft=4;spacingRight=4;overflow=hidden;rotatable=0;points=[[0,0.5],[1,0.5]];portConstraint=eastwest;" vertex="1" parent="1">
                    <mxGeometry x="1710" y="1226" width="500" height="24" as="geometry"/>
                </mxCell>
                <mxCell id="307" value="Extends" style="endArrow=block;endSize=16;endFill=0;html=1;entryX=0.5;entryY=1;entryDx=0;entryDy=0;exitX=0.5;exitY=0;exitDx=0;exitDy=0;" edge="1" parent="1" source="289" target="267">
                    <mxGeometry width="160" relative="1" as="geometry">
                        <mxPoint x="905" y="910" as="sourcePoint"/>
                        <mxPoint x="1065" y="910" as="targetPoint"/>
                    </mxGeometry>
                </mxCell>
                <mxCell id="308" value="&lt;p style=&quot;margin:0px;margin-top:4px;text-align:center;&quot;&gt;LoanRequest&lt;/p&gt;" style="verticalAlign=top;align=left;overflow=fill;fontSize=12;fontFamily=Helvetica;html=1;" vertex="1" parent="1">
                    <mxGeometry x="1010" y="245" width="440" height="230" as="geometry"/>
                </mxCell>
                <mxCell id="309" value="- applicant: User" style="text;strokeColor=none;fillColor=none;align=left;verticalAlign=top;spacingLeft=4;spacingRight=4;overflow=hidden;rotatable=0;points=[[0,0.5],[1,0.5]];portConstraint=eastwest;" vertex="1" parent="1">
                    <mxGeometry x="1010" y="279" width="160" height="24" as="geometry"/>
                </mxCell>
                <mxCell id="310" value="- requested: Loanable" style="text;strokeColor=none;fillColor=none;align=left;verticalAlign=top;spacingLeft=4;spacingRight=4;overflow=hidden;rotatable=0;points=[[0,0.5],[1,0.5]];portConstraint=eastwest;" vertex="1" parent="1">
                    <mxGeometry x="1010" y="303" width="160" height="24" as="geometry"/>
                </mxCell>
                <mxCell id="311" value="- accepted: boolean" style="text;strokeColor=none;fillColor=none;align=left;verticalAlign=top;spacingLeft=4;spacingRight=4;overflow=hidden;rotatable=0;points=[[0,0.5],[1,0.5]];portConstraint=eastwest;" vertex="1" parent="1">
                    <mxGeometry x="1010" y="329" width="160" height="24" as="geometry"/>
                </mxCell>
                <mxCell id="312" value="- dateOfRequest: LocalDate" style="text;strokeColor=none;fillColor=none;align=left;verticalAlign=top;spacingLeft=4;spacingRight=4;overflow=hidden;rotatable=0;points=[[0,0.5],[1,0.5]];portConstraint=eastwest;" vertex="1" parent="1">
                    <mxGeometry x="1010" y="353" width="160" height="24" as="geometry"/>
                </mxCell>
                <mxCell id="313" value="" style="line;strokeWidth=1;fillColor=none;align=left;verticalAlign=middle;spacingTop=-1;spacingLeft=3;spacingRight=3;rotatable=0;labelPosition=right;points=[];portConstraint=eastwest;strokeColor=inherit;" vertex="1" parent="1">
                    <mxGeometry x="1010" y="385" width="440" height="8" as="geometry"/>
                </mxCell>
                <mxCell id="314" value="+ LoanRequest(applicant: User,requested: Loanable,dateOfRequest: LocalDate)" style="text;strokeColor=none;fillColor=none;align=left;verticalAlign=top;spacingLeft=4;spacingRight=4;overflow=hidden;rotatable=0;points=[[0,0.5],[1,0.5]];portConstraint=eastwest;" vertex="1" parent="1">
                    <mxGeometry x="1010" y="393" width="510" height="24" as="geometry"/>
                </mxCell>
                <mxCell id="315" value="+ accept(applicant: Admin)" style="text;strokeColor=none;fillColor=none;align=left;verticalAlign=top;spacingLeft=4;spacingRight=4;overflow=hidden;rotatable=0;points=[[0,0.5],[1,0.5]];portConstraint=eastwest;" vertex="1" parent="1">
                    <mxGeometry x="1010" y="417" width="500" height="24" as="geometry"/>
                </mxCell>
                <mxCell id="316" value="+ getters" style="text;strokeColor=none;fillColor=none;align=left;verticalAlign=top;spacingLeft=4;spacingRight=4;overflow=hidden;rotatable=0;points=[[0,0.5],[1,0.5]];portConstraint=eastwest;" vertex="1" parent="1">
                    <mxGeometry x="1010" y="441" width="500" height="24" as="geometry"/>
                </mxCell>
                <mxCell id="317" value="" style="line;strokeWidth=1;fillColor=none;align=left;verticalAlign=middle;spacingTop=-1;spacingLeft=3;spacingRight=3;rotatable=0;labelPosition=right;points=[];portConstraint=eastwest;strokeColor=inherit;" vertex="1" parent="1">
                    <mxGeometry x="1710" y="832" width="510" height="8" as="geometry"/>
                </mxCell>
                <mxCell id="318" value="" style="line;strokeWidth=1;fillColor=none;align=left;verticalAlign=middle;spacingTop=-1;spacingLeft=3;spacingRight=3;rotatable=0;labelPosition=right;points=[];portConstraint=eastwest;strokeColor=inherit;" vertex="1" parent="1">
                    <mxGeometry x="1715" y="260" width="500" height="8" as="geometry"/>
                </mxCell>
                <mxCell id="319" value="" style="line;strokeWidth=1;fillColor=none;align=left;verticalAlign=middle;spacingTop=-1;spacingLeft=3;spacingRight=3;rotatable=0;labelPosition=right;points=[];portConstraint=eastwest;strokeColor=inherit;" vertex="1" parent="1">
                    <mxGeometry x="1010" y="265" width="440" height="8" as="geometry"/>
                </mxCell>
                <mxCell id="320" value="Use" style="endArrow=open;endSize=12;dashed=1;html=1;exitX=0.407;exitY=0.854;exitDx=0;exitDy=0;entryX=-0.029;entryY=0.153;entryDx=0;entryDy=0;entryPerimeter=0;exitPerimeter=0;" edge="1" parent="1" source="318" target="272">
                    <mxGeometry width="160" relative="1" as="geometry">
                        <mxPoint x="1475" y="470" as="sourcePoint"/>
                        <mxPoint x="1635" y="470" as="targetPoint"/>
                    </mxGeometry>
                </mxCell>
                <mxCell id="321" value="Use" style="endArrow=open;endSize=12;dashed=1;html=1;entryX=-0.014;entryY=0.105;entryDx=0;entryDy=0;entryPerimeter=0;exitX=0.522;exitY=0.5;exitDx=0;exitDy=0;exitPerimeter=0;" edge="1" parent="1" source="317" target="294">
                    <mxGeometry width="160" relative="1" as="geometry">
                        <mxPoint x="1825" y="760" as="sourcePoint"/>
                        <mxPoint x="2010.94" y="328.03200000000004" as="targetPoint"/>
                    </mxGeometry>
                </mxCell>
                <mxCell id="322" value="requests" style="endArrow=open;endSize=12;dashed=1;html=1;exitX=1.007;exitY=0.057;exitDx=0;exitDy=0;entryX=-0.004;entryY=0.028;entryDx=0;entryDy=0;entryPerimeter=0;exitPerimeter=0;" edge="1" parent="1" source="308" target="267">
                    <mxGeometry x="-0.0109" width="160" relative="1" as="geometry">
                        <mxPoint x="1840" y="343" as="sourcePoint"/>
                        <mxPoint x="1955.94" y="343.03200000000004" as="targetPoint"/>
                        <mxPoint as="offset"/>
                    </mxGeometry>
                </mxCell>
                <mxCell id="323" value="Manages" style="text;align=center;fontStyle=1;verticalAlign=middle;spacingLeft=3;spacingRight=3;strokeColor=none;rotatable=0;points=[[0,0.5],[1,0.5]];portConstraint=eastwest;" vertex="1" parent="1">
                    <mxGeometry x="1225" y="625" width="80" height="26" as="geometry"/>
                </mxCell>
                <mxCell id="324" value="Manages" style="text;align=center;fontStyle=1;verticalAlign=middle;spacingLeft=3;spacingRight=3;strokeColor=none;rotatable=0;points=[[0,0.5],[1,0.5]];portConstraint=eastwest;" vertex="1" parent="1">
                    <mxGeometry x="1680" y="1495" width="80" height="26" as="geometry"/>
                </mxCell>
                <mxCell id="325" value="&amp;nbsp;&lt;br&gt;&amp;nbsp; &amp;nbsp;filters" style="shape=folder;fontStyle=1;spacingTop=10;tabWidth=60;tabHeight=20;tabPosition=left;html=1;verticalAlign=top;align=left;" vertex="1" parent="1">
                    <mxGeometry x="490" y="1225" width="220" height="220" as="geometry"/>
                </mxCell>
                <mxCell id="326" value="«interface»&lt;br&gt;&lt;b&gt;LoanRequestFilter&lt;/b&gt;" style="html=1;" vertex="1" parent="1">
                    <mxGeometry x="540" y="1285" width="120" height="50" as="geometry"/>
                </mxCell>
                <mxCell id="327" value="«interface»&lt;br&gt;&lt;b&gt;BookFilter&lt;/b&gt;" style="html=1;" vertex="1" parent="1">
                    <mxGeometry x="545" y="1370" width="110" height="50" as="geometry"/>
                </mxCell>
                <mxCell id="328" value="Use" style="endArrow=open;endSize=12;dashed=1;html=1;exitX=-0.001;exitY=0.284;exitDx=0;exitDy=0;exitPerimeter=0;entryX=0.5;entryY=0;entryDx=0;entryDy=0;" edge="1" parent="1" target="326">
                    <mxGeometry width="160" relative="1" as="geometry">
                        <mxPoint x="959.3800000000001" y="942.8000000000002" as="sourcePoint"/>
                        <mxPoint x="720" y="1245" as="targetPoint"/>
                        <Array as="points">
                            <mxPoint x="600" y="943"/>
                        </Array>
                    </mxGeometry>
                </mxCell>
                <mxCell id="329" value="&amp;nbsp;&lt;br&gt;&amp;nbsp; &amp;nbsp;managers" style="shape=folder;fontStyle=1;spacingTop=10;tabWidth=60;tabHeight=20;tabPosition=left;html=1;verticalAlign=top;align=left;" vertex="1" parent="1">
                    <mxGeometry x="840" y="685" width="830" height="1430" as="geometry"/>
                </mxCell>
                <mxCell id="330" value="&lt;p style=&quot;margin:0px;margin-top:4px;text-align:center;&quot;&gt;&lt;b&gt;LoanRequestsManager&lt;/b&gt;&lt;/p&gt;" style="verticalAlign=top;align=left;overflow=fill;fontSize=12;fontFamily=Helvetica;html=1;" vertex="1" parent="1">
                    <mxGeometry x="960" y="815" width="620" height="450" as="geometry"/>
                </mxCell>
                <mxCell id="331" value="- instance: LoanRequestsManager" style="text;strokeColor=none;fillColor=none;align=left;verticalAlign=top;spacingLeft=4;spacingRight=4;overflow=hidden;rotatable=0;points=[[0,0.5],[1,0.5]];portConstraint=eastwest;fontStyle=4" vertex="1" parent="1">
                    <mxGeometry x="970" y="857" width="200" height="24" as="geometry"/>
                </mxCell>
                <mxCell id="332" value="&lt;&lt;enumeration&gt;&gt;&#10;Criteria" style="swimlane;fontStyle=4;childLayout=stackLayout;horizontal=1;startSize=40;fillColor=none;horizontalStack=0;resizeParent=1;resizeParentMax=0;resizeLast=0;collapsible=1;marginBottom=0;" vertex="1" parent="1">
                    <mxGeometry x="1410" y="890" width="140" height="130" as="geometry"/>
                </mxCell>
                <mxCell id="333" value="OBJ_ID&#10;OBJ_NAME APPLICANT DATE_OF_REQ LOAN_STATE" style="text;strokeColor=none;fillColor=none;align=left;verticalAlign=top;spacingLeft=4;spacingRight=4;overflow=hidden;rotatable=0;points=[[0,0.5],[1,0.5]];portConstraint=eastwest;whiteSpace=wrap;" vertex="1" parent="332">
                    <mxGeometry y="40" width="140" height="90" as="geometry"/>
                </mxCell>
                <mxCell id="334" value="" style="line;strokeWidth=1;fillColor=none;align=left;verticalAlign=middle;spacingTop=-1;spacingLeft=3;spacingRight=3;rotatable=0;labelPosition=right;points=[];portConstraint=eastwest;strokeColor=inherit;" vertex="1" parent="1">
                    <mxGeometry x="960" y="1027" width="620" height="8" as="geometry"/>
                </mxCell>
                <mxCell id="335" value="- LoanRequestsManager()" style="text;strokeColor=none;fillColor=none;align=left;verticalAlign=top;spacingLeft=4;spacingRight=4;overflow=hidden;rotatable=0;points=[[0,0.5],[1,0.5]];portConstraint=eastwest;" vertex="1" parent="1">
                    <mxGeometry x="960" y="1041" width="510" height="24" as="geometry"/>
                </mxCell>
                <mxCell id="336" value="+ getInstance(): LoanRequestsManager" style="text;strokeColor=none;fillColor=none;align=left;verticalAlign=top;spacingLeft=4;spacingRight=4;overflow=hidden;rotatable=0;points=[[0,0.5],[1,0.5]];portConstraint=eastwest;fontStyle=4" vertex="1" parent="1">
                    <mxGeometry x="960" y="1065" width="510" height="28" as="geometry"/>
                </mxCell>
                <mxCell id="337" value="+ makeBookRequest(applicant: User, book: Book): LoanRequest" style="text;strokeColor=none;fillColor=none;align=left;verticalAlign=top;spacingLeft=4;spacingRight=4;overflow=hidden;rotatable=0;points=[[0,0.5],[1,0.5]];portConstraint=eastwest;" vertex="1" parent="1">
                    <mxGeometry x="960" y="1113" width="500" height="24" as="geometry"/>
                </mxCell>
                <mxCell id="338" value="+ acceptRequest(applicant: Admin, request: LoanRequest)" style="text;strokeColor=none;fillColor=none;align=left;verticalAlign=top;spacingLeft=4;spacingRight=4;overflow=hidden;rotatable=0;points=[[0,0.5],[1,0.5]];portConstraint=eastwest;" vertex="1" parent="1">
                    <mxGeometry x="960" y="1135" width="500" height="24" as="geometry"/>
                </mxCell>
                <mxCell id="339" value="" style="line;strokeWidth=1;fillColor=none;align=left;verticalAlign=middle;spacingTop=-1;spacingLeft=3;spacingRight=3;rotatable=0;labelPosition=right;points=[];portConstraint=eastwest;strokeColor=inherit;" vertex="1" parent="1">
                    <mxGeometry x="960" y="837" width="620" height="8" as="geometry"/>
                </mxCell>
                <mxCell id="340" value="Singleton" style="endArrow=open;endSize=12;dashed=1;html=1;exitX=-0.001;exitY=0.03;exitDx=0;exitDy=0;exitPerimeter=0;" edge="1" parent="1" source="330">
                    <mxGeometry x="0.1738" width="160" relative="1" as="geometry">
                        <mxPoint x="1140" y="955" as="sourcePoint"/>
                        <mxPoint x="990" y="815" as="targetPoint"/>
                        <Array as="points">
                            <mxPoint x="860" y="830"/>
                            <mxPoint x="860" y="745"/>
                            <mxPoint x="990" y="745"/>
                            <mxPoint x="990" y="785"/>
                        </Array>
                        <mxPoint as="offset"/>
                    </mxGeometry>
                </mxCell>
                <mxCell id="341" value="- ORDER_CRITERIAS: Map&lt;Criteria, Comparator&lt;LoanRequest&gt;&gt;" style="text;strokeColor=none;fillColor=none;align=left;verticalAlign=top;spacingLeft=4;spacingRight=4;overflow=hidden;rotatable=0;points=[[0,0.5],[1,0.5]];portConstraint=eastwest;fontStyle=4" vertex="1" parent="1">
                    <mxGeometry x="970" y="883" width="370" height="24" as="geometry"/>
                </mxCell>
                <mxCell id="342" value="- FILTER_CRITERIAS: Map&lt;Criteria, LoanRequestFilter&lt;?&gt;&gt;" style="text;strokeColor=none;fillColor=none;align=left;verticalAlign=top;spacingLeft=4;spacingRight=4;overflow=hidden;rotatable=0;points=[[0,0.5],[1,0.5]];portConstraint=eastwest;fontStyle=4" vertex="1" parent="1">
                    <mxGeometry x="970" y="907" width="370" height="24" as="geometry"/>
                </mxCell>
                <mxCell id="343" value="- requests: List&lt;LoanRequest&gt;" style="text;strokeColor=none;fillColor=none;align=left;verticalAlign=top;spacingLeft=4;spacingRight=4;overflow=hidden;rotatable=0;points=[[0,0.5],[1,0.5]];portConstraint=eastwest;fontStyle=0" vertex="1" parent="1">
                    <mxGeometry x="970" y="931" width="200" height="24" as="geometry"/>
                </mxCell>
                <mxCell id="344" value="Use" style="endArrow=open;endSize=12;dashed=1;html=1;entryX=-0.014;entryY=0.105;entryDx=0;entryDy=0;entryPerimeter=0;exitX=0.639;exitY=0.917;exitDx=0;exitDy=0;exitPerimeter=0;" edge="1" parent="1" source="339">
                    <mxGeometry x="-0.0173" width="160" relative="1" as="geometry">
                        <mxPoint x="1344.44" y="904" as="sourcePoint"/>
                        <mxPoint x="1408.0400000000004" y="903.6500000000001" as="targetPoint"/>
                        <mxPoint as="offset"/>
                    </mxGeometry>
                </mxCell>
                <mxCell id="345" value="+ denyRequest(applicant: Admin, request: LoanRequest)" style="text;strokeColor=none;fillColor=none;align=left;verticalAlign=top;spacingLeft=4;spacingRight=4;overflow=hidden;rotatable=0;points=[[0,0.5],[1,0.5]];portConstraint=eastwest;" vertex="1" parent="1">
                    <mxGeometry x="960" y="1159" width="500" height="24" as="geometry"/>
                </mxCell>
                <mxCell id="346" value="+ cancelRequest(applicant: User, request: LoanRequest)" style="text;strokeColor=none;fillColor=none;align=left;verticalAlign=top;spacingLeft=4;spacingRight=4;overflow=hidden;rotatable=0;points=[[0,0.5],[1,0.5]];portConstraint=eastwest;" vertex="1" parent="1">
                    <mxGeometry x="960" y="1183" width="500" height="24" as="geometry"/>
                </mxCell>
                <mxCell id="347" value="+ getSortedRequestsBy(criteria: Criteria): List&lt;LoanRequest&gt; " style="text;strokeColor=none;fillColor=none;align=left;verticalAlign=top;spacingLeft=4;spacingRight=4;overflow=hidden;rotatable=0;points=[[0,0.5],[1,0.5]];portConstraint=eastwest;" vertex="1" parent="1">
                    <mxGeometry x="960" y="1207" width="500" height="24" as="geometry"/>
                </mxCell>
                <mxCell id="348" value="+ &lt;T&gt; filterBy(criteria: Criteria, argument: T): List&lt;LoanRequest&gt; " style="text;strokeColor=none;fillColor=none;align=left;verticalAlign=top;spacingLeft=4;spacingRight=4;overflow=hidden;rotatable=0;points=[[0,0.5],[1,0.5]];portConstraint=eastwest;" vertex="1" parent="1">
                    <mxGeometry x="960" y="1231" width="500" height="24" as="geometry"/>
                </mxCell>
                <mxCell id="349" value="&lt;p style=&quot;margin:0px;margin-top:4px;text-align:center;&quot;&gt;&lt;b&gt;ArchiveManager&lt;/b&gt;&lt;/p&gt;" style="verticalAlign=top;align=left;overflow=fill;fontSize=12;fontFamily=Helvetica;html=1;" vertex="1" parent="1">
                    <mxGeometry x="1000" y="1505" width="620" height="430" as="geometry"/>
                </mxCell>
                <mxCell id="350" value="- instance: LoanRequestsManager" style="text;strokeColor=none;fillColor=none;align=left;verticalAlign=top;spacingLeft=4;spacingRight=4;overflow=hidden;rotatable=0;points=[[0,0.5],[1,0.5]];portConstraint=eastwest;fontStyle=4" vertex="1" parent="1">
                    <mxGeometry x="1010" y="1547" width="200" height="24" as="geometry"/>
                </mxCell>
                <mxCell id="351" value="&lt;&lt;enumeration&gt;&gt;&#10;Criteria" style="swimlane;fontStyle=4;childLayout=stackLayout;horizontal=1;startSize=40;fillColor=none;horizontalStack=0;resizeParent=1;resizeParentMax=0;resizeLast=0;collapsible=1;marginBottom=0;" vertex="1" parent="1">
                    <mxGeometry x="1470" y="1537" width="140" height="180" as="geometry">
                        <mxRectangle x="1520" y="622" width="140" height="40" as="alternateBounds"/>
                    </mxGeometry>
                </mxCell>
                <mxCell id="352" value="LOAN_STATE &#10;ID &#10;RELEASE_YEAR NUM_PAGES&#10;GENRE&#10;AUTHOR&#10;TITLE NUM_PAGES_MORE NUM_PAGES_LESS" style="text;strokeColor=none;fillColor=none;align=left;verticalAlign=top;spacingLeft=4;spacingRight=4;overflow=hidden;rotatable=0;points=[[0,0.5],[1,0.5]];portConstraint=eastwest;whiteSpace=wrap;" vertex="1" parent="351">
                    <mxGeometry y="40" width="140" height="140" as="geometry"/>
                </mxCell>
                <mxCell id="353" value="" style="line;strokeWidth=1;fillColor=none;align=left;verticalAlign=middle;spacingTop=-1;spacingLeft=3;spacingRight=3;rotatable=0;labelPosition=right;points=[];portConstraint=eastwest;strokeColor=inherit;" vertex="1" parent="1">
                    <mxGeometry x="1000" y="1717" width="620" height="8" as="geometry"/>
                </mxCell>
                <mxCell id="354" value="- ArchiveManager()" style="text;strokeColor=none;fillColor=none;align=left;verticalAlign=top;spacingLeft=4;spacingRight=4;overflow=hidden;rotatable=0;points=[[0,0.5],[1,0.5]];portConstraint=eastwest;" vertex="1" parent="1">
                    <mxGeometry x="1000" y="1735" width="510" height="24" as="geometry"/>
                </mxCell>
                <mxCell id="355" value="+ getInstance(): ArchiveManager" style="text;strokeColor=none;fillColor=none;align=left;verticalAlign=top;spacingLeft=4;spacingRight=4;overflow=hidden;rotatable=0;points=[[0,0.5],[1,0.5]];portConstraint=eastwest;fontStyle=4" vertex="1" parent="1">
                    <mxGeometry x="1000" y="1759" width="510" height="28" as="geometry"/>
                </mxCell>
                <mxCell id="356" value="+ addBook(applicant: Admin, book: Book)" style="text;strokeColor=none;fillColor=none;align=left;verticalAlign=top;spacingLeft=4;spacingRight=4;overflow=hidden;rotatable=0;points=[[0,0.5],[1,0.5]];portConstraint=eastwest;" vertex="1" parent="1">
                    <mxGeometry x="1000" y="1807" width="500" height="24" as="geometry"/>
                </mxCell>
                <mxCell id="357" value="" style="line;strokeWidth=1;fillColor=none;align=left;verticalAlign=middle;spacingTop=-1;spacingLeft=3;spacingRight=3;rotatable=0;labelPosition=right;points=[];portConstraint=eastwest;strokeColor=inherit;" vertex="1" parent="1">
                    <mxGeometry x="1000" y="1527" width="620" height="8" as="geometry"/>
                </mxCell>
                <mxCell id="358" value="- ORDER_CRITERIAS: Map&lt;Criteria, Comparator&lt;Book&gt;&gt;" style="text;strokeColor=none;fillColor=none;align=left;verticalAlign=top;spacingLeft=4;spacingRight=4;overflow=hidden;rotatable=0;points=[[0,0.5],[1,0.5]];portConstraint=eastwest;fontStyle=4" vertex="1" parent="1">
                    <mxGeometry x="1010" y="1573" width="330" height="24" as="geometry"/>
                </mxCell>
                <mxCell id="359" value="- FILTER_CRITERIAS: Map&lt;Criteria, BookFilter&lt;?&gt;&gt;" style="text;strokeColor=none;fillColor=none;align=left;verticalAlign=top;spacingLeft=4;spacingRight=4;overflow=hidden;rotatable=0;points=[[0,0.5],[1,0.5]];portConstraint=eastwest;fontStyle=4" vertex="1" parent="1">
                    <mxGeometry x="1010" y="1597" width="330" height="24" as="geometry"/>
                </mxCell>
                <mxCell id="360" value="- archive: HashMap&lt;String, Book&gt;" style="text;strokeColor=none;fillColor=none;align=left;verticalAlign=top;spacingLeft=4;spacingRight=4;overflow=hidden;rotatable=0;points=[[0,0.5],[1,0.5]];portConstraint=eastwest;fontStyle=0" vertex="1" parent="1">
                    <mxGeometry x="1010" y="1621" width="200" height="24" as="geometry"/>
                </mxCell>
                <mxCell id="361" value="Use" style="endArrow=open;endSize=12;dashed=1;html=1;entryX=-0.021;entryY=0.088;entryDx=0;entryDy=0;entryPerimeter=0;exitX=0.642;exitY=0.708;exitDx=0;exitDy=0;exitPerimeter=0;" edge="1" parent="1" source="357" target="352">
                    <mxGeometry x="-0.0173" width="160" relative="1" as="geometry">
                        <mxPoint x="1384.44" y="1594" as="sourcePoint"/>
                        <mxPoint x="1448.04" y="1593.6499999999996" as="targetPoint"/>
                        <mxPoint as="offset"/>
                    </mxGeometry>
                </mxCell>
                <mxCell id="362" value="+ searchBook(searchQuery: String): List&lt;Book&gt; " style="text;strokeColor=none;fillColor=none;align=left;verticalAlign=top;spacingLeft=4;spacingRight=4;overflow=hidden;rotatable=0;points=[[0,0.5],[1,0.5]];portConstraint=eastwest;" vertex="1" parent="1">
                    <mxGeometry x="1000" y="1855" width="500" height="24" as="geometry"/>
                </mxCell>
                <mxCell id="363" value="+ getSortedBooksBy(criteria: Criteria): List&lt;Book&gt; " style="text;strokeColor=none;fillColor=none;align=left;verticalAlign=top;spacingLeft=4;spacingRight=4;overflow=hidden;rotatable=0;points=[[0,0.5],[1,0.5]];portConstraint=eastwest;" vertex="1" parent="1">
                    <mxGeometry x="1000" y="1787" width="500" height="24" as="geometry"/>
                </mxCell>
                <mxCell id="364" value="+ &lt;T&gt; filterBy(criteria: Criteria, argument: T): List&lt;Book&gt; " style="text;strokeColor=none;fillColor=none;align=left;verticalAlign=top;spacingLeft=4;spacingRight=4;overflow=hidden;rotatable=0;points=[[0,0.5],[1,0.5]];portConstraint=eastwest;" vertex="1" parent="1">
                    <mxGeometry x="1000" y="1903" width="500" height="24" as="geometry"/>
                </mxCell>
                <mxCell id="365" value="Singleton" style="endArrow=open;endSize=12;dashed=1;html=1;exitX=-0.001;exitY=0.03;exitDx=0;exitDy=0;exitPerimeter=0;" edge="1" parent="1">
                    <mxGeometry x="0.1738" width="160" relative="1" as="geometry">
                        <mxPoint x="999.3800000000001" y="1518.8000000000006" as="sourcePoint"/>
                        <mxPoint x="1030" y="1505" as="targetPoint"/>
                        <Array as="points">
                            <mxPoint x="900" y="1520"/>
                            <mxPoint x="900" y="1435"/>
                            <mxPoint x="1030" y="1435"/>
                            <mxPoint x="1030" y="1475"/>
                        </Array>
                        <mxPoint as="offset"/>
                    </mxGeometry>
                </mxCell>
                <mxCell id="366" value="Checks availability from" style="endArrow=open;endSize=12;dashed=1;html=1;exitX=0.915;exitY=1.006;exitDx=0;exitDy=0;entryX=0.851;entryY=-0.009;entryDx=0;entryDy=0;exitPerimeter=0;entryPerimeter=0;" edge="1" parent="1" source="330" target="349">
                    <mxGeometry width="160" relative="1" as="geometry">
                        <mxPoint x="2649" y="821.3199999999999" as="sourcePoint"/>
                        <mxPoint x="2650" y="408.68000000000006" as="targetPoint"/>
                        <Array as="points">
                            <mxPoint x="1527" y="1385"/>
                        </Array>
                    </mxGeometry>
                </mxCell>
                <mxCell id="367" value="+ initializeRequests(archive: List&lt;LoanRequests&gt;)" style="text;strokeColor=none;fillColor=none;align=left;verticalAlign=top;spacingLeft=4;spacingRight=4;overflow=hidden;rotatable=0;points=[[0,0.5],[1,0.5]];portConstraint=eastwest;" vertex="1" parent="1">
                    <mxGeometry x="960" y="1093" width="500" height="24" as="geometry"/>
                </mxCell>
                <mxCell id="368" value="+ removeBook(applicant: Admin, book: Book)" style="text;strokeColor=none;fillColor=none;align=left;verticalAlign=top;spacingLeft=4;spacingRight=4;overflow=hidden;rotatable=0;points=[[0,0.5],[1,0.5]];portConstraint=eastwest;" vertex="1" parent="1">
                    <mxGeometry x="1000" y="1831" width="500" height="24" as="geometry"/>
                </mxCell>
                <mxCell id="369" value="+ isBookPresent(book: Book): boolean " style="text;strokeColor=none;fillColor=none;align=left;verticalAlign=top;spacingLeft=4;spacingRight=4;overflow=hidden;rotatable=0;points=[[0,0.5],[1,0.5]];portConstraint=eastwest;" vertex="1" parent="1">
                    <mxGeometry x="1000" y="1879" width="500" height="24" as="geometry"/>
                </mxCell>
                <mxCell id="370" value="Use" style="endArrow=open;endSize=12;dashed=1;html=1;entryX=0.5;entryY=1;entryDx=0;entryDy=0;exitX=-0.001;exitY=0.142;exitDx=0;exitDy=0;exitPerimeter=0;" edge="1" parent="1" target="327">
                    <mxGeometry width="160" relative="1" as="geometry">
                        <mxPoint x="999.3800000000001" y="1566.06" as="sourcePoint"/>
                        <mxPoint x="720" y="1445" as="targetPoint"/>
                        <Array as="points">
                            <mxPoint x="600" y="1565"/>
                        </Array>
                    </mxGeometry>
                </mxCell>
                <mxCell id="371" value="" style="endArrow=diamondThin;endFill=0;endSize=24;html=1;entryX=0.441;entryY=-0.007;entryDx=0;entryDy=0;entryPerimeter=0;" edge="1" parent="1">
                    <mxGeometry width="160" relative="1" as="geometry">
                        <mxPoint x="1233" y="475" as="sourcePoint"/>
                        <mxPoint x="1233.4200000000005" y="811.8500000000001" as="targetPoint"/>
                    </mxGeometry>
                </mxCell>
                <mxCell id="372" value="Requests" style="endArrow=open;endSize=12;dashed=1;html=1;entryX=0.057;entryY=0.004;entryDx=0;entryDy=0;entryPerimeter=0;exitX=0.967;exitY=-0.001;exitDx=0;exitDy=0;exitPerimeter=0;" edge="1" parent="1">
                    <mxGeometry x="-0.224" width="160" relative="1" as="geometry">
                        <mxPoint x="1559.54" y="814.5500000000002" as="sourcePoint"/>
                        <mxPoint x="1739.0700000000002" y="812" as="targetPoint"/>
                        <mxPoint as="offset"/>
                        <Array as="points">
                            <mxPoint x="1560" y="775"/>
                            <mxPoint x="1740" y="775"/>
                        </Array>
                    </mxGeometry>
                </mxCell>
                <mxCell id="373" value="" style="endArrow=diamondThin;endFill=0;endSize=24;html=1;entryX=1.006;entryY=0.032;entryDx=0;entryDy=0;entryPerimeter=0;exitX=0.2;exitY=1.006;exitDx=0;exitDy=0;exitPerimeter=0;" edge="1" parent="1">
                    <mxGeometry width="160" relative="1" as="geometry">
                        <mxPoint x="1812" y="1313" as="sourcePoint"/>
                        <mxPoint x="1623.7200000000003" y="1518.7600000000002" as="targetPoint"/>
                        <Array as="points">
                            <mxPoint x="1810" y="1519"/>
                        </Array>
                    </mxGeometry>
                </mxCell>
            </root>
        </mxGraphModel>
    </diagram>
</mxfile>